<svg width="53" height="98" fill="none" xmlns="http://www.w3.org/2000/svg"><path d="M51.691 30.139c-.326-5.815-.114-10.543-2.283-15.949a12.035 12.035 0 0 0-2.188-3.505c-2.313-2.562-7.116-5.642-9.545-8.093C36.503 1.41 35.135.508 33.758.165 32.09-.249 26.46.118 26.46 2.23c0-2.113-5.628-2.48-7.295-2.065-1.433.356-2.961 1.317-4.287 2.569-2.509 2.37-7.464 5.39-9.778 7.95a12.035 12.035 0 0 0-2.188 3.506c-2.167 5.406-1.355 10.134-1.68 15.949C.067 50.899.344 71.686.307 92.479a5.012 5.012 0 0 0 5.008 5.023H47.61a5.012 5.012 0 0 0 5.008-5.024c-.038-20.792.239-41.579-.925-62.339Z" fill="#7A303B"/><path d="M44.544 76.411c-8.96-.619-15.966 5.279-23.814 8.658-4.962 2.136-10.961 3.639-16.4 3.262-2.112-.146-4.02 1.458-4.023 3.575 0 .39 0 .78-.002 1.17A4.415 4.415 0 0 0 4.717 97.5h42.89a5.011 5.011 0 0 0 5.008-5.024c-.015-7.77.01-15.541-.01-23.31-.002-.962-.48-1.887-1.348-2.302-5.576-2.663-12.77-3.84-17.962.385-.573.465-1.622-.16-1.11-.856 4.408-5.98 10.796-9.421 18.456-7.635.95.221 1.89-.478 1.883-1.452-.005-.68-.01-1.359-.018-2.038-.009-.79-.33-1.558-.958-2.038-6.369-4.861-15.325-.933-20.87 4.126-5.143 4.693-10.462 10.87-18.3 8.509C7.818 64.492.311 67.043.306 71.806L.304 73.65c0 2.139 1.358 4.089 3.47 4.42 2.546.398 5.182.381 7.675.121 11.583-1.208 21.753-8.08 33.428-3.011.602.265.296 1.275-.334 1.231ZM34.218 88.833a4.862 4.862 0 0 0-.364.225c-.066.046-.31.246-.227.175-.128.107-.255.214-.384.319-.278.227-.55.513-.857.693-.627.367-1.268.372-1.967.256-1.267-.211-1.81-1.674-1.578-2.779.39-1.845 2.864-2.297 4.451-2.3 1.82-.006 2.505 2.499.925 3.411Zm13.117-5.869c.349 1.266.053 3.058-1.038 3.925-.131.105-.266.206-.4.309h.001l.034-.026c-.045.04-.08.088-.118.135-1.574 1.957-4.674 2.16-6.487.347-1.998-1.998-1.558-5.467.888-6.89a5.706 5.706 0 0 1 4.302-.619c1.355.346 2.45 1.483 2.819 2.819Z" fill="#BF594D"/><path d="M52.068 38.267c-.086-2.195-3.495-3.656-5.655-3.26-5.676 1.039-12.278-2.832-10.7-9.466.864-3.635 4.184-6.12 4.813-9.748.107-.611.183-1.226.235-1.841.054-.65-.318-1.299-.294-1.95.077-2.096-.091-4.144-.596-6.14a3.758 3.758 0 0 0-.471-1.103C38.006 2.576 35.894.696 33.757.165c-1.2-.298-4.442-.19-6.168.682-.691.348-.75 1.191-.541 1.936.048.171.11.338.185.499.918 1.95 1.315 4.217 1.31 6.252-.008 3.809-.398 9.531-3.563 12.154a4.56 4.56 0 0 1-2.723 1.07c-.632.029-1.271.036-1.903.05-2.92.07-6.076-2.198-7.467-5.021-.8-1.622-1.333-3.656-1.548-5.792-.202-1.997-1.408-4.121-3.293-3.43-2.214.812-4.185 3.257-5.134 5.626-2.167 5.406-1.355 10.134-1.68 15.949-.085 1.493-.15 2.987-.215 4.481-.028.627.204 1.255.179 1.882-.272 6.815 1.216 13.666 6.121 18.764 2.066 2.148 4.639 4.435 7.722 4.85 4.9.661 7.862-2.855 11.17-5.699 4.612-3.963 11.006-7.023 16.77-6.772 3.49.152 9.324-2.632 9.208-6.123-.037-1.086-.076-2.17-.119-3.256Z" fill="#BF594D"/><path d="M34.172 48.111a4.555 4.555 0 0 1-.957-.106c-.972-.204-2.45-.493-3.897-.891-2.48-.681-4.903-.537-7.355.125-1.352.365-2.733.707-4.122.826-2.174.187-3.83-.822-4.802-2.758-1.471-2.925-1.606-5.894-.025-8.85.834-1.559 2.07-2.648 3.822-2.965 1.55-.281 2.415-1.301 3.23-2.495.708-1.035 1.49-2.023 2.288-2.99 2.07-2.51 6.06-2.377 8.236.126 1.138 1.309 2.037 2.822 3.13 4.172.389.481.997.997 1.568 1.084 4.367.664 6.115 3.63 5.897 7.761a11.653 11.653 0 0 1-.338 2.195c-.78 3.118-2.812 4.743-6.675 4.766ZM39.831 14.509c.031 3.477-2.346 6.689-5.53 7.474-2.326.573-4.464-.279-5.767-2.298-2.277-3.528-1.496-9.052 1.67-11.802 2.388-2.075 5.563-1.802 7.557.649 1.267 1.555 2.051 3.821 2.07 5.977ZM13.116 14.624c-.046-2.706.548-4.402 1.64-5.909 1.764-2.431 4.83-2.901 7.28-1.164 3.807 2.7 4.706 9.117 1.785 12.75-1.954 2.431-5.007 2.773-7.489.776-2.309-1.858-3.103-4.425-3.216-6.453ZM36.544 27.331a4.74 4.74 0 0 1-.003-1.09c.337-2.689 1.36-5.089 4.018-6.53 2.326-1.261 4.81-.574 6.157 1.699 1.485 2.506 1.362 5.123.125 7.658a8.287 8.287 0 0 1-2.013 2.596c-3.598 3.065-7.327.533-8.083-2.873-.102-.46-.145-.933-.2-1.46ZM16.47 26.638c-.006 3.231-2.172 5.959-5 6.306-1.847.227-3.293-.535-4.338-1.961-1.77-2.416-2.512-5.088-1.65-8.073.843-2.918 3.366-4.254 6.237-3.276 2.792.951 4.759 3.849 4.752 7.004Z" fill="#FAA593"/></svg>