<svg width="44" height="103" fill="none" xmlns="http://www.w3.org/2000/svg"><path d="M1.812 32.396c.604 2.272 1.361 4.511 1.747 6.831.41 2.458.393 4.964.372 7.455A1768.065 1768.065 0 0 1 2.766 97.3a5.011 5.011 0 0 0 5.003 5.201h29.176a5 5 0 0 0 4.999-4.869l1.43-54.546c.271-10.389 1.692-24.424-3.738-33.821-1.086-1.878-2.855-3.44-4.866-4.176-2-.73-4.114-1.77-5.861-2.987-2.793-1.946-6.829-2.22-9.652-.239-1.487 1.043-3.218 1.8-5.032 1.898a7.687 7.687 0 0 0-1.49.22c-3.147.807-5.14 3.824-6.223 6.887-.351.995-1.015 1.893-2.04 2.143-.343.084-.657.167-.857.232-3.01.985-3.67 4.919-3.519 8.083a52.965 52.965 0 0 0 1.716 11.07Z" fill="#B1847A"/><path d="M34.77 40.69c-.31.084-.632.122-.953.137-.826.039-2.037.107-3.246.088-2.14-.034-4.064.585-5.903 1.628-1.014.575-2.057 1.137-3.151 1.522-1.714.602-3.257.132-4.444-1.226-1.793-2.052-2.518-4.418-1.857-7.129.572-2.347 2.74-2.99 3.885-4.964.738-1.272 1.059-2.769 1.76-4.036.576-1.039 1.588-2.232 2.552-2.923 1.538-1.101 4.179-1.62 5.866-.623.554.327 1.011.792 1.462 1.252.787.803 1.245 1.773 1.91 2.663 1.094 1.462 2.776 1.689 4.13 2.754 1.197.941 1.822 2.352 2.117 3.814.121.601.178 1.225.183 1.839.02 2.65-1.257 4.374-4.31 5.204ZM33.728 11.946a8.24 8.24 0 0 1-.003 1.111c-.137 2.012-1.181 4.909-3.155 5.762-1.83.791-3.702.386-5.05-1.092-2.356-2.583-2.476-7.225-.256-9.919 1.675-2.032 4.319-2.246 6.294-.509 1.358 1.195 2.055 2.872 2.17 4.647ZM11.599 15.697c-.41-2.215-.157-3.689.533-5.077 1.113-2.239 3.564-3.047 5.815-1.959 3.498 1.692 5.12 6.835 3.223 10.221-1.269 2.265-3.728 2.967-6.041 1.669-2.151-1.207-3.156-3.204-3.53-4.854ZM33.52 19.926l.761-3.713c.194-.949.414-1.949 1.07-2.662 1.64-1.787 4.41-.615 5.038 1.447.786 2.581.094 5.559-1.749 7.53-1.396 1.491-4.996 1.9-5.304-.837-.062-.551.05-1.104.161-1.647l.023-.118ZM15.885 24.558c.031.148.06.298.084.448.141.854.267 1.727.134 2.583-.133.856-.563 1.705-1.308 2.147-.71.422-1.6.418-2.41.255-2.259-.455-5.573-2.782-5.91-5.239-.41-2.996 1.392-5.851 4.67-5.315 2.74.448 4.211 2.621 4.74 5.121Z" fill="#FFC5BF"/></svg>