<svg width="33" height="35" fill="none" xmlns="http://www.w3.org/2000/svg"><path d="M15.193 16.561c-3.414-1.226-5.426 1.632-9.598 3.323-6.121 2.481-6.69 6.475-4.241 8.303 2.449 1.828 5.99-.358 8.946.86a.306.306 0 0 0 .027.011l.028.01c3 1.101 4.132 5.106 7.173 5.415 3.04.31 5.32-3.019 2.489-8.985-1.93-4.066-1.48-7.532-4.824-8.937ZM8.013 10.882c.869 3.297-.15 6.424-2.276 6.984-2.125.56-4.553-1.659-5.421-4.956-.87-3.297.15-6.424 2.275-6.983 2.125-.559 4.554 1.658 5.422 4.955ZM24.322 17.231c-2.87 1.842-4.232 4.834-3.045 6.684 1.187 1.85 4.476 1.856 7.345.014 2.869-1.842 4.232-4.835 3.045-6.684-1.187-1.85-4.476-1.856-7.345-.014ZM17.809 7.252c-.697 3.527-3.105 6.023-5.38 5.574-2.273-.449-3.552-3.673-2.855-7.2C10.27 2.1 12.679-.397 14.953.052c2.274.45 3.552 3.672 2.856 7.2ZM19.559 7.933c-1.871 3.07-1.784 6.537.195 7.743 1.979 1.206 5.1-.304 6.972-3.374 1.872-3.07 1.784-6.537-.195-7.743-1.98-1.207-5.1.304-6.972 3.374Z" fill="#FF7500"/></svg>