<svg width="57" height="93" fill="none" xmlns="http://www.w3.org/2000/svg"><path d="M50.497 93.002c2.974 0 5.294-2.566 4.978-5.524-1.17-10.97-3.763-35.646-4.92-49.559-.173-2.061-.236-4.172.306-6.168.93-3.428 3.701-6.175 4.401-9.658.686-3.41-.944-7.169-3.905-8.997a8.077 8.077 0 0 0-1.688-.787c-3.237-1.08-8.187-3.942-9.788-6.956C38.545 2.838 36.197.771 33.402.225 29.18-.6 17.516 1.54 13.755 3.631c-.5.278-.968.612-1.39 1.001-1.163 1.074-1.978 2.43-2.463 3.914-1.2 3.675-4.91 8.916-7.462 11.82C.456 22.626-.31 25.894.463 28.8c1.154 4.33 5.24 7.241 7.13 11.305 1.32 2.837 1.487 6.053 1.634 9.18.504 10.75-.179 29.407-.573 38.472a5.025 5.025 0 0 0 5.02 5.246h36.823Z" fill="#FFBA6C"/><path d="M56.069 93.002c0-.001-2.245-20.685-4.009-38.737-.156-1.598-2.294-3.828-3.38-4.896a12.497 12.497 0 0 0-2.987-2.161c-1.167-.597-2.766.31-4.042.011-.307-.072-.59-.2-.86-.36-.345-.205-1.36.095-1.746.198a8.497 8.497 0 0 0-2.095.888 2.52 2.52 0 0 1-1.205.355c-.873.03-1.716-.289-2.567-.49a9.62 9.62 0 0 0-3.937-.097c-.497.091-.995.226-1.427.49-1.452.884-1.915 3.05-3.49 3.623a.157.157 0 0 1-.176-.052c-.106-.133-.469-.035-.575.098a1.157 1.157 0 0 1-1.01.42c-.604-.077-1.08-.546-1.427-1.045-.17-.245-.976-.111-1.034.18-.076.379-.173.753-.291 1.12.142-.443-4.421-1.728-4.94-1.698-2.847.167-5.497 2.493-5.474 5.345.084 10.622-.423 24.229-.741 31.562a5.027 5.027 0 0 0 5.02 5.247h42.392ZM19.343 67.51c.09-.426.223-.825.374-1.21 1.276-3.249 4.657-7.017 8.434-5.076.774.398 2.658 1.215 2.937 2.04l.67 1.976a.197.197 0 0 0 .172.137c.26.016 2.093.896 2.164 1.147a7.09 7.09 0 0 0 .811 1.842.35.35 0 0 0 .52.085c.106-.086.21-.175.31-.266.508-.462 1.413-.26 1.5.42.225 1.785.198 3.692-.38 5.321a3.973 3.973 0 0 1-.467.921c-.475.69-.766 2.102-1.163 2.84-.477.889-1.763 1.628-2.564 2.242-.06.046-.122.09-.185.131-.582.38-1.27.57-1.957.673-3.095.466-6.36-.89-8.33-3.3-.715-.876-2.145-1.53-2.542-2.589-.23-.614-.08-1.173-.072-1.796.006-.561-.17-1.067-.274-1.632a10.107 10.107 0 0 1 .043-3.906ZM19.844 28.937c-.033-2.36-1.097-4.376-2.364-6.316a4.285 4.285 0 0 0-.857-.965c-1.865-1.538-4.02-2.822-6.254-3.924-.662-.326-1.396-.503-2.128-.41-2.212.284-4.327 1.364-5.802 3.042C.455 22.623-.31 25.892.462 28.797c1.154 4.33 5.24 7.241 7.13 11.305.14.299.264.601.377.908a.444.444 0 0 0 .325.285.403.403 0 0 0 .077.007c1.273.005 2.231.253 3.428.676.406.143.854.283 1.269.248.292-.024.382-.356.27-.626-.193-.467.442-.784.901-.575.478.217 1.004.33 1.527.321.506-.008.823-.488.832-.993.036-1.834.629-3.457 1.643-5.003 1.186-1.804 1.633-4.28 1.603-6.413Z" fill="#FFEB98"/><path d="M35.782 6.97c-1.893-3.115-5.909-2.857-7.225.574-1.2 3.129-.914 9.045 3.21 10.072 1.606.4 3.364-.416 4.345-1.751.981-1.335 1.261-3.09 1.061-4.734-.157-1.292-.615-2.886-1.39-4.162ZM22.952 10.502a6.502 6.502 0 0 0-1.337-1.623c-.676-.576-1.476-1.032-2.35-1.192-.874-.16-1.827.002-2.529.547-.43.333-.748.79-1.018 1.263-2.052 3.597-1.594 9.714 2.965 11.129 1.796.557 4.01-.112 4.885-1.776 1.225-2.323.837-5.91-.616-8.348ZM49.336 19.085c-.266-.837-.71-1.564-1.368-2.07-1.016-.781-2.53-.573-3.594.142-1.717 1.155-3.466 3.419-3.812 5.482-.56 3.34 2.766 6.235 5.964 4.717.434-.206.83-.491 1.18-.82 1.603-1.5 2.416-4.962 1.63-7.451ZM16.395 30.89c.17-.399.288-.818.345-1.245.48-3.616-2.617-7.074-6.275-6.83-.262.017-.53.054-.762.177-.288.152-.494.421-.672.694-1.979 3.044-.932 10.67 4.021 9.95 1.498-.219 2.744-1.349 3.343-2.747ZM43.213 36.52a6.507 6.507 0 0 0-1.78-4.488c-1.23-1.313-2.819-2.287-3.863-3.751-.688-.966-1.11-2.105-1.835-3.044-1.822-2.359-5.594-2.892-7.998-1.131-1.895 1.388-2.758 3.753-4.199 5.608-.869 1.119-1.957 2.058-2.794 3.202-2.564 3.503-2.677 10.192 1.96 12.013 2.307.907 5.524-.067 7.54-1.296.444-.271.894-.565 1.407-.656.911-.162 1.788.339 2.667.629 4.855 1.603 8.914-2.717 8.895-7.086Z" fill="#AB5452"/></svg>