<svg width="57" height="93" fill="none" xmlns="http://www.w3.org/2000/svg"><path d="M56.047 93.002c0-.002-3.994-36.817-5.514-55.083-.172-2.061-.235-4.172.307-6.168.93-3.428 3.7-6.175 4.4-9.658.687-3.411-.943-7.169-3.904-8.997a8.077 8.077 0 0 0-1.69-.787c-3.236-1.08-8.185-3.942-9.786-6.956C38.524 2.838 36.176.771 33.38.225 29.158-.6 17.495 1.54 13.734 3.631c-.5.278-.967.612-1.39 1.001-1.163 1.074-1.978 2.43-2.463 3.914-1.2 3.675-4.91 8.916-7.461 11.82C.435 22.625-.332 25.894.442 28.799c1.154 4.33 5.24 7.241 7.13 11.305 1.319 2.837 1.487 6.053 1.634 9.179.504 10.751-.179 29.41-.572 38.475a5.025 5.025 0 0 0 5.02 5.246h42.39c.002 0 .003 0 .003-.002Z" fill="#FF9F52"/><path d="M55.24 22.093c.687-3.411-.943-7.169-3.904-8.997a8.077 8.077 0 0 0-1.69-.787c-3.236-1.08-8.185-3.942-9.786-6.956C38.524 2.838 36.176.771 33.38.225 29.158-.6 17.495 1.54 13.734 3.631c-.5.278-.967.612-1.39 1.001-1.163 1.074-1.978 2.43-2.463 3.914-1.2 3.675-4.91 8.916-7.461 11.82C.435 22.625-.332 25.894.442 28.799c1.154 4.33 5.24 7.241 7.13 11.305 1.319 2.837 1.487 6.053 1.634 9.178.113 2.418.166 5.239.176 8.259a2.296 2.296 0 0 0 2.292 2.292c.523 0 1.014.025 1.482.117.85.166 1.863-.311 2.255-1.084.296-.584.824-1.089 1.47-1.192.782-.124 1.533.345 2.113.883a7.76 7.76 0 0 1 1.609 2.114 6.202 6.202 0 0 1-.192-3.827c.059-.215.133-.434.289-.593.468-.478 1.269-.133 1.83.23 1.062.686 3.053 2.654 4.454 2.095.443-.176.53-.625.864-.924.458-.411 1.23-.731 1.773-1.028 1.427-.781 3.046-1.345 4.693-1.112 2.273.322 4.046 2.039 5.878 3.421.834.629 1.84 1.231 2.862 1.01.992-.214 1.647-1.121 2.404-1.796 1.73-1.546 3.317-.147 4.587 1.231.265.287.636.455 1.027.455.814 0 1.45-.703 1.369-1.512-.743-7.48-1.44-14.81-1.906-20.401-.172-2.061-.235-4.172.307-6.168.928-3.43 3.698-6.177 4.399-9.659Z" fill="#E87552"/><path d="M35.76 6.969c-1.892-3.114-5.908-2.856-7.224.575-1.201 3.129-.914 9.045 3.209 10.072 1.607.4 3.365-.416 4.346-1.751.98-1.335 1.26-3.09 1.06-4.734-.156-1.292-.614-2.886-1.39-4.162ZM22.93 10.503a6.467 6.467 0 0 0-1.336-1.623c-.676-.576-1.476-1.032-2.35-1.192-.874-.16-1.827.002-2.53.547-.43.334-.747.79-1.017 1.263-2.052 3.597-1.594 9.714 2.965 11.129 1.796.557 4.009-.112 4.885-1.776 1.225-2.324.837-5.912-.616-8.348ZM49.314 19.085c-.265-.837-.71-1.564-1.368-2.07-1.015-.781-2.53-.573-3.593.142-1.717 1.155-3.466 3.419-3.812 5.482-.561 3.34 2.765 6.235 5.963 4.717.435-.206.83-.491 1.18-.82 1.604-1.5 2.417-4.962 1.63-7.451ZM16.374 30.889c.17-.398.288-.817.345-1.244.48-3.616-2.617-7.074-6.275-6.83-.262.017-.53.054-.762.177-.288.152-.494.421-.672.694-1.98 3.044-.932 10.669 4.02 9.949 1.499-.218 2.745-1.348 3.344-2.746ZM43.192 36.52a6.507 6.507 0 0 0-1.781-4.488c-1.23-1.313-2.818-2.287-3.862-3.751-.688-.966-1.11-2.105-1.835-3.044-1.822-2.359-5.594-2.892-7.998-1.131-1.895 1.388-2.758 3.753-4.2 5.608-.868 1.119-1.956 2.058-2.793 3.202-2.564 3.503-2.677 10.192 1.959 12.013 2.308.907 5.525-.067 7.54-1.296.445-.271.895-.565 1.408-.656.91-.162 1.788.339 2.667.629 4.855 1.603 8.914-2.717 8.895-7.086Z" fill="#FFCFB8"/></svg>