<svg width="53" height="98" fill="none" xmlns="http://www.w3.org/2000/svg"><path d="M51.67 30.139c-.326-5.815-.115-10.543-2.283-15.949a12.033 12.033 0 0 0-2.188-3.505c-2.314-2.562-7.117-5.642-9.546-8.093C36.48 1.41 35.113.508 33.736.166 32.069-.248 26.44.119 26.44 2.231c0-2.112-5.63-2.48-7.296-2.065-1.432.356-2.96 1.317-4.286 2.568-2.51 2.37-7.465 5.39-9.778 7.951a12.038 12.038 0 0 0-2.188 3.505C.725 19.596 1.537 24.324 1.21 30.139.047 50.899.323 71.686.287 92.479a5.012 5.012 0 0 0 5.007 5.023h42.293a5.012 5.012 0 0 0 5.008-5.024c-.037-20.792.239-41.579-.925-62.339Z" fill="#FFFCCC"/><path d="M34.15 48.111a4.556 4.556 0 0 1-.957-.106c-.972-.204-2.45-.493-3.897-.891-2.48-.681-4.903-.537-7.355.126-1.352.365-2.733.707-4.122.827-2.174.187-3.83-.822-4.802-2.758-1.471-2.925-1.606-5.894-.025-8.85.834-1.559 2.07-2.648 3.822-2.965 1.55-.281 2.415-1.301 3.23-2.495.708-1.035 1.49-2.023 2.288-2.99 2.07-2.51 6.06-2.377 8.236.126 1.138 1.309 2.037 2.822 3.13 4.172.389.481.997.997 1.568 1.084 4.367.664 6.115 3.63 5.897 7.761a11.653 11.653 0 0 1-.338 2.195c-.78 3.116-2.812 4.741-6.675 4.764ZM39.81 14.509c.03 3.477-2.346 6.689-5.531 7.474-2.325.573-4.463-.279-5.766-2.298-2.278-3.528-1.497-9.052 1.669-11.802 2.388-2.075 5.563-1.802 7.558.649 1.266 1.555 2.05 3.822 2.07 5.977ZM13.094 14.624c-.046-2.706.548-4.402 1.64-5.909 1.765-2.432 4.83-2.901 7.28-1.164 3.808 2.7 4.707 9.117 1.786 12.75-1.954 2.431-5.007 2.773-7.49.776-2.308-1.858-3.102-4.424-3.216-6.453ZM36.523 27.331a4.746 4.746 0 0 1-.004-1.09c.337-2.689 1.36-5.089 4.018-6.53 2.326-1.261 4.81-.574 6.157 1.699 1.485 2.506 1.362 5.122.125 7.658a8.287 8.287 0 0 1-2.013 2.596c-3.598 3.065-7.327.533-8.083-2.873-.102-.46-.144-.933-.2-1.46ZM16.449 26.638c-.007 3.231-2.173 5.959-5 6.306-1.848.227-3.294-.535-4.34-1.962-1.77-2.416-2.511-5.088-1.65-8.072.844-2.918 3.367-4.254 6.238-3.276 2.792.951 4.759 3.849 4.752 7.004Z" fill="#9D424F"/></svg>