<svg width="44" height="102" fill="none" xmlns="http://www.w3.org/2000/svg"><path d="M1.79 31.897c.604 2.272 1.361 4.511 1.747 6.831.41 2.458.393 4.964.372 7.455a1768.074 1768.074 0 0 1-1.165 50.618 5.011 5.011 0 0 0 5.004 5.201h29.176a5 5 0 0 0 4.998-4.869l1.43-54.546c.271-10.389 1.692-24.424-3.738-33.821-1.085-1.878-2.855-3.44-4.865-4.176-2-.73-4.115-1.77-5.862-2.987-2.793-1.946-6.829-2.22-9.652-.239-1.486 1.043-3.218 1.8-5.031 1.897a7.683 7.683 0 0 0-1.49.221c-3.148.807-5.142 3.824-6.224 6.887-.35.995-1.015 1.893-2.04 2.143-.342.084-.657.167-.857.232-3.01.985-3.67 4.919-3.519 8.083a52.965 52.965 0 0 0 1.716 11.07Z" fill="#984B4A"/><path d="M4.236 62.527c-.296-.01-.556.202-.562.499-.052 2.85-.11 5.701-.176 8.551-.061 2.66 1.988 4.94 4.615 4.523 2.203-.35 4.37-1.003 6.361-1.793 2.136-.848 4.198-1.94 6.018-3.349 1.71-1.324 3.19-3.19 4.55-4.87 1.26-1.556-.257-2.931-2.028-1.998-.607.32-1.211.646-1.813.977a8.004 8.004 0 0 0 2.872-3.936c.26-.785.353-1.725.036-2.45a1.806 1.806 0 0 0-.499-.672c-.533-.442-1.123-1.801-1.12-2.494 0-.126-.016-.254-.053-.383-.178-.634-.813-1.053-1.46-1.173-.649-.12-1.313.004-1.959.127l-1.493.285a.852.852 0 0 1-.995-1.008c.071-.348-2.208.489-2.39.639-.726.597-1.51 1.202-2.24 1.83-2.8 2.407-3.547 6.81-7.664 6.695ZM41.853 99.728c.03-1.12-.755-2.063-1.812-2.435a8.191 8.191 0 0 1-.59-.233c-.806-.356-1.613-.728-2.425-1.094-1.01-.456-1.351-1.797-1.607-2.875-.098-.414-.324-.831-.714-1.002-.274-.12-.587-.101-.886-.079l-5.45.394a6.615 6.615 0 0 0 3.886-2.234c.202-.239.397-.544.311-.845-.13-.455-.744-.512-1.216-.474-3.228.256-6.45.592-9.662 1.006-1.486.191-3.096.615-4.578.533-1.375-.076-2.778-.299-4.162-.401-1.44-.106-2.895-.13-4.348-.163-2.991-.068-5.69 2.247-5.797 5.237-.02.579-.042 1.157-.063 1.736A5.013 5.013 0 0 0 7.745 102H39.52c1.265 0 2.3-1.007 2.333-2.272ZM34.71 71.347c-2.186 1.197-4.097 2.846-6.34 3.982-3.539 1.793-7.056 3.475-10.824 4.754-.434.147-.699.583-.248.662l.563.097c.365.064.466.742.204 1.005-.167.168-.08.44.149.505.309.087.622.16.939.217.299.054.385.567.2.808-.253.328-.293.858.027 1.12.13.106.296.153.46.194 3.872.96 8.243-.487 11.868-1.806 2.56-.93 5.054-2.026 7.57-3.066 1.882-.777 3.166-2.574 3.22-4.61l.112-4.271c.085-3.257-3.854-4.974-6.393-2.933-.669.539-1.351 1.061-2.05 1.565-1.75 1.26-1.348 2.814.543 1.777Z" fill="#540000"/><path d="M34.749 40.19c-.31.085-.632.123-.954.138-.826.039-2.037.107-3.246.088-2.14-.034-4.064.585-5.903 1.628-1.014.575-2.057 1.137-3.15 1.522-1.715.602-3.258.132-4.445-1.226-1.793-2.052-2.518-4.418-1.857-7.129.572-2.347 2.74-2.99 3.885-4.964.738-1.272 1.06-2.769 1.76-4.036.576-1.039 1.588-2.232 2.552-2.923 1.538-1.101 4.18-1.62 5.866-.623.554.327 1.011.792 1.462 1.252.787.803 1.245 1.773 1.91 2.663 1.094 1.462 2.776 1.689 4.13 2.754 1.197.941 1.822 2.352 2.117 3.814.121.601.178 1.225.183 1.839.02 2.65-1.257 4.374-4.31 5.203ZM33.706 11.447a8.24 8.24 0 0 1-.003 1.111c-.137 2.012-1.18 4.909-3.155 5.762-1.83.791-3.702.386-5.05-1.092-2.356-2.583-2.476-7.224-.256-9.919 1.675-2.032 4.32-2.246 6.294-.509 1.358 1.195 2.055 2.872 2.17 4.647ZM11.577 15.198c-.41-2.215-.157-3.689.533-5.077 1.113-2.239 3.564-3.047 5.815-1.959 3.498 1.692 5.12 6.835 3.223 10.221-1.269 2.265-3.728 2.967-6.04 1.669-2.152-1.207-3.157-3.204-3.53-4.854ZM33.498 19.427l.761-3.713c.194-.949.414-1.949 1.07-2.662 1.64-1.787 4.41-.615 5.038 1.447.786 2.581.094 5.559-1.749 7.53-1.396 1.491-4.996 1.9-5.304-.837-.062-.551.05-1.104.161-1.647a3.1 3.1 0 0 1 .023-.118ZM15.863 24.059c.031.148.06.298.084.448.141.854.267 1.727.134 2.583-.133.856-.563 1.705-1.308 2.147-.71.422-1.6.418-2.41.255-2.259-.455-5.573-2.782-5.91-5.239-.41-2.996 1.392-5.851 4.67-5.315 2.74.448 4.211 2.621 4.74 5.121Z" fill="#FF9275"/></svg>