<svg width="57" height="96" fill="none" xmlns="http://www.w3.org/2000/svg"><path d="M11.689 42.391c2.203 2.354 1.99 6.478 1.992 9.47a562.517 562.517 0 0 1-1.313 38.75c-.198 2.908 2.096 5.391 5.011 5.391h35.474c.093 0 .174-.077.169-.17a1853.245 1853.245 0 0 1-1.533-35.195c-.204-5.983-.377-11.967-.527-17.952-.128-5.118 1.689-8.102 3.736-12.671a21.214 21.214 0 0 0 1.571-11.981c-.219-1.352-.949-2.897-2.049-3.731-3.455-2.62-9.944-6.34-12.252-10.011-1.316-2.092-3.44-3.475-6.61-3.439-2.707.031-5.97 1.911-7.348 4.321-1.052 1.84-4.357 2.56-6.021 1.246-1.035-.816-2.173-1.481-3.425-1.917-3.192-1.111-7.213-.337-9.088 2.475-1.375 2.062-1.371 4.803-.587 7.154.93 2.787-.867 5.478-3.68 6.326-.938.284-1.828.782-2.65 1.613C.455 24.197-.389 27.487.432 30.364 1.155 32.898 3 34.94 4.84 36.826c2.047 2.1 4.963 3.55 6.85 5.565Z" fill="#CC8B68"/><path d="M28.99 61.409c-4.03.522-7.302 4.738-5.5 8.754.177.393.405.746.673 1.057.702.818 1.47 1.613 2.135 2.46.606.772 1.388 1.419 2.366 1.998 2.2 1.302 5.344.152 6.866-1.641 1.337-1.576 1.804-3.735 1.43-5.75a.378.378 0 0 1 .44-.438c.717.14 1.479.187 2.284.117 2.401-.21 4.28-1.909 5.25-4.008 1.085-2.345.375-5.137-.605-7.366-.22-.499-.5-1.083-.837-1.67-.982-2.324-3.64-4.373-6.239-3.872-.026.005-.049.015-.075.02a4.705 4.705 0 0 0-2.014.679c-2.112 1.032-3.55 2.923-4.094 5.423a9.86 9.86 0 0 0-.224 2.233c.014.98-.884 1.878-1.857 2.004ZM9.477 6.978c-1.375 2.062-1.37 4.803-.587 7.154.393 1.177.96 2.276 1.608 3.334.209.341.463.654.768.912.072.061.145.121.219.18.43.344.84.716 1.202 1.131 1.167 1.336 2.577 2.455 4.136 3.373.477.281.909.636 1.35.97 1.805 1.366 4.558 1.493 6.606-.035.293-.218.547-.456.784-.703 1.19-.933 2.05-2.333 2.313-4.137.445-3.044-.169-5.843-1.624-8.332-.03-.052-.113-.036-.124.023-.01.058-.091.077-.125.028-1.873-2.749-4.299-5.282-7.436-6.375-3.194-1.109-7.215-.335-9.09 2.477ZM32.388 95.939c.916-10.311-8.92-18.544-17.853-21.427a.022.022 0 0 1-.005-.002l-.02-.013c-.002-.001-.005 0-.005.002s-.002.003-.004.002c-.254-.082-.507-.16-.759-.233-.262-.076-.502.14-.513.412-.212 5.314-.5 10.624-.861 15.93-.199 2.908 2.096 5.391 5.01 5.391H32.31c.037 0 .075-.025.078-.062ZM38.935 74.685c-3.95 3.465-4.669 12.251 1.194 13.783a5.076 5.076 0 0 0 2.886.094l.014-.003.086-.024c1.548-.377 2.814-1.409 3.638-2.78.261-.383.496-.789.694-1.216 1.08-2.329.931-5.567-.3-7.803-1.64-2.974-5.35-4.561-8.212-2.051Z" fill="#9C4C39"/><path d="M40.373 8.047c-.717-1.721-2.218-3.062-4.224-3.121-4.429-.132-6.006 5.744-5.798 9.235.097 1.62.419 3.285 1.353 4.613.934 1.328 2.592 2.242 4.182 1.915 1.089-.224 1.997-.98 2.717-1.828 2.396-2.824 3.209-7.359 1.77-10.814ZM25.636 16.129c-.29-2.694-2.347-5.521-4.544-7.033-2.25-1.549-5.293-1.237-6.464 1.441-.92 2.105-.261 4.744.533 6.783 1.136 2.917 3.685 5.244 6.981 4.243 1.62-.492 2.924-1.882 3.36-3.518a5.238 5.238 0 0 0 .134-1.916ZM52.133 24.988c.567-1.864.839-4.558-.324-6.261-1.702-2.493-5.397-.299-6.948 1.336a8.241 8.241 0 0 0-2.232 5.35c-.079 2.509 2.027 4.63 4.565 4.192 2.129-.367 4.03-2.189 4.785-4.167.054-.14.105-.291.154-.45ZM17.985 33.009c.579-1.424.511-3.209-.071-4.744-1.236-3.264-5.742-5.215-8.823-2.988-1.509 1.091-2.121 3.135-1.757 4.917.318 1.561 1.257 3.483 2.645 4.345.774.48 1.666.738 2.562.901.71.129 1.439.202 2.154.101 1.701-.241 2.763-1.238 3.29-2.532ZM41.484 33.309c-1.249-.718-2.64-1.286-3.16-2.723-.123-.34-.176-.699-.262-1.05-.787-3.24-4.287-5.346-7.527-4.725-4.322.828-3.996 5.219-5.778 8.277-1.54 2.642-4.567 3.957-3.453 7.537.611 1.964 2.368 3.473 4.36 3.987 1.992.514 4.164.092 5.94-.944.341-.199.687-.426 1.08-.463.584-.055 1.11.315 1.621.602 2.422 1.361 5.708.961 7.733-.941 2.12-1.991 3.011-6.285.815-8.554-.39-.403-.868-.715-1.369-1.003Z" fill="#FFAA89"/></svg>