<svg width="53" height="98" fill="none" xmlns="http://www.w3.org/2000/svg"><path d="M51.67 30.137c-.326-5.815-.115-10.543-2.283-15.949a12.033 12.033 0 0 0-2.188-3.505C44.885 8.12 40.082 5.04 37.653 2.59 36.48 1.407 35.113.506 33.736.163 32.069-.251 26.44.116 26.44 2.228c0-2.113-5.63-2.48-7.296-2.065-1.432.356-2.961 1.317-4.286 2.569-2.51 2.37-7.465 5.39-9.778 7.95a12.035 12.035 0 0 0-2.188 3.506C.725 19.594 1.537 24.322 1.21 30.137.047 50.897.323 71.684.287 92.477A5.012 5.012 0 0 0 5.294 97.5h42.293a5.012 5.012 0 0 0 5.008-5.024c-.037-20.792.239-41.579-.925-62.339Z" fill="#7A303B"/><path d="M34.15 48.11a4.556 4.556 0 0 1-.957-.107c-.972-.204-2.45-.493-3.897-.891-2.48-.681-4.903-.537-7.355.126-1.352.365-2.733.707-4.122.827-2.174.187-3.83-.822-4.802-2.758-1.471-2.925-1.606-5.894-.025-8.85.834-1.559 2.07-2.648 3.822-2.965 1.55-.281 2.415-1.301 3.23-2.495.708-1.035 1.49-2.023 2.288-2.99 2.07-2.51 6.06-2.377 8.236.126 1.138 1.309 2.037 2.822 3.13 4.172.389.481.997.997 1.568 1.084 4.367.664 6.115 3.63 5.897 7.761a11.653 11.653 0 0 1-.338 2.195c-.78 3.116-2.812 4.741-6.675 4.764ZM39.81 14.507c.03 3.477-2.346 6.689-5.531 7.474-2.325.573-4.463-.279-5.766-2.298-2.278-3.528-1.497-9.052 1.669-11.802 2.388-2.075 5.563-1.802 7.558.649 1.266 1.555 2.05 3.822 2.07 5.977ZM13.094 14.622c-.046-2.706.548-4.402 1.64-5.909 1.765-2.431 4.83-2.901 7.28-1.164 3.808 2.7 4.707 9.117 1.786 12.75-1.954 2.431-5.007 2.773-7.49.776-2.308-1.858-3.102-4.424-3.216-6.453ZM36.523 27.33a4.745 4.745 0 0 1-.004-1.092c.337-2.688 1.36-5.088 4.018-6.529 2.326-1.261 4.81-.574 6.157 1.699 1.485 2.506 1.362 5.122.125 7.658a8.287 8.287 0 0 1-2.013 2.596c-3.598 3.065-7.327.533-8.083-2.873-.102-.46-.144-.933-.2-1.46ZM16.449 26.636c-.007 3.231-2.173 5.959-5 6.306-1.848.227-3.294-.535-4.34-1.962-1.77-2.416-2.511-5.088-1.65-8.072.844-2.918 3.367-4.254 6.238-3.276 2.792.951 4.759 3.849 4.752 7.004Z" fill="#EBB98B"/><path d="M41.622 26.992c-.253-.029-.51-.095-.757-.039-.642.146-.826.957-1.255 1.456-.813.945-2.306.714-2.79-.406-.472-1.094-.457-4.124 1.546-3.218.412.186.75.592 1.202.584.472-.008.806-.47.96-.916.202-.577.24-1.198.39-1.79.152-.592.453-1.194.997-1.474 1.207-.62 2.598-.328 2.926 1.102.466 2.026-.72 4.985-3.22 4.701ZM25.856 38.854c-.765-.612-1.876-.467-2.493.277-.942 1.136-.493 2.567.187 3.69.308.508.962.682 1.51.657l.475-.022c.886-.041 1.516-.952 1.429-1.786a3.65 3.65 0 0 0-.09-.507c-.172-.685-.29-1.436-.716-2a1.746 1.746 0 0 0-.302-.309Zm7.842-6.533a36.479 36.479 0 0 1-1.379-1.859c-.49-.69-1.39-.94-1.93-.286-1.565 1.901-4.83 7.278-1.61 9.287.856.534 1.808.594 2.789.44.427-.067.876-.377.867-.809-.013-.6-.85-.897-.933-1.491-.04-.279.106-.556.307-.754.2-.197.453-.331.694-.477.545-.33 1.053-.745 1.392-1.284.238-.38.377-.791.438-1.217.082-.577-.269-1.096-.635-1.55Zm-10.312 4.956c.398-1.102-.184-2.333.012-3.488.225-1.331 1.396-2.255 2.202-3.338.346-.466.53-1.297-.018-1.486-.15-.052-.312-.03-.468-.002-2.713.477-6.246 3.465-6.3 6.556-.013.753-.503 1.553-1.005 2.115a.81.81 0 0 1-.114.103 4.434 4.434 0 0 0-.87.861 3.732 3.732 0 0 0-.723 2.473c.135 1.663 1.407 3.102 3.082 3.326 1.112.149 1.677-.436 1.749-1.446.093-1.316-.634-1.683-1.623-2.344-.59-.394-1.126-1.148-.775-1.763.25-.438.839-.556 1.339-.489.48.064.943.254 1.427.286l.057.003c.872.032 1.732-.547 2.028-1.367Zm-2.86-23.378c.499-1.407-.054-2.917-1.15-3.873a1.858 1.858 0 0 0-.775-.397c-.698-.174-1.48-.104-2.15.154-.714.274-1.284.903-1.393 1.697-.213 1.558.183 3.169 1.69 3.923 1.423.713 3.244.007 3.779-1.504Z" fill="#C07553"/></svg>